<!-- icon666.com - MILLIONS vector ICONS FREE --><svg id="Capa_1" enable-background="new 0 0 512 512" viewBox="0 0 512 512" xmlns="http://www.w3.org/2000/svg" xmlns:xlink="http://www.w3.org/1999/xlink"><linearGradient id="SVGID_1_" gradientUnits="userSpaceOnUse" x1="0" x2="512" y1="256" y2="256"><stop offset="0" stop-color="#9dd6fc"></stop><stop offset=".0056" stop-color="#9dd6fc"></stop><stop offset="1" stop-color="#d17ff7"></stop></linearGradient><g><g><g><path d="m452 0h-392c-33.084 0-60 26.916-60 60v280c0 33.084 26.916 60 60 60h136v72h-60c-11.046 0-20 8.954-20 20s8.954 20 20 20h240c11.046 0 20-8.954 20-20s-8.954-20-20-20h-60v-72h136c33.084 0 60-26.916 60-60v-280c0-33.084-26.916-60-60-60zm-176 472h-40v-72h40zm196-132c0 11.028-8.972 20-20 20h-392c-11.028 0-20-8.972-20-20v-280c0-11.028 8.972-20 20-20h392c11.028 0 20 8.972 20 20zm-301.858-214.142c-7.811-7.811-20.474-7.811-28.284 0l-60 60c-7.811 7.81-7.811 20.474 0 28.284l60 60c3.905 3.905 9.023 5.858 14.142 5.858s10.237-1.953 14.142-5.858c7.811-7.81 7.811-20.474 0-28.284l-45.858-45.858 45.858-45.858c7.811-7.81 7.811-20.474 0-28.284zm109.78-45.47c-10.83-2.167-21.368 4.858-23.534 15.689l-40 200c-2.166 10.831 4.858 21.368 15.689 23.534 1.324.265 2.643.392 3.944.392 9.338 0 17.689-6.574 19.59-16.082l40-200c2.167-10.83-4.858-21.366-15.689-23.533zm90.22 45.47c-7.811-7.811-20.474-7.811-28.284 0-7.811 7.81-7.811 20.474 0 28.284l45.858 45.858-45.858 45.858c-7.811 7.81-7.811 20.474 0 28.284 3.905 3.905 9.023 5.858 14.142 5.858s10.237-1.953 14.142-5.858l60-60c7.811-7.81 7.811-20.474 0-28.284z" fill="url(#SVGID_1_)"></path></g></g></g></svg>